<mxfile host="Electron" agent="Mozilla/5.0 (Windows NT 10.0; Win64; x64) AppleWebKit/537.36 (KHTML, like Gecko) draw.io/24.7.17 Chrome/128.0.6613.36 Electron/32.0.1 Safari/537.36" version="24.7.17">
  <diagram id="C5RBs43oDa-KdzZeNtuy" name="Page-1">
    <mxGraphModel dx="368" dy="737" grid="0" gridSize="10" guides="1" tooltips="1" connect="1" arrows="1" fold="1" page="1" pageScale="1" pageWidth="827" pageHeight="1169" background="#ffffff" math="0" shadow="0">
      <root>
        <mxCell id="WIyWlLk6GJQsqaUBKTNV-0" />
        <mxCell id="WIyWlLk6GJQsqaUBKTNV-1" parent="WIyWlLk6GJQsqaUBKTNV-0" />
        <mxCell id="cKu4siLhyV3QIfPD6zT8-0" value="&lt;&lt;interface&gt;&gt;&#xa;Persistence::IDataHandler" style="swimlane;fontStyle=2;align=center;verticalAlign=top;childLayout=stackLayout;horizontal=1;startSize=40;horizontalStack=0;resizeParent=1;resizeLast=0;collapsible=1;marginBottom=0;rounded=1;shadow=0;strokeWidth=1;labelBackgroundColor=none;fillColor=#F2CC8F;strokeColor=#E07A5F;fontColor=#393C56;" parent="WIyWlLk6GJQsqaUBKTNV-1" vertex="1">
          <mxGeometry x="921" y="534" width="260" height="326" as="geometry">
            <mxRectangle x="220" y="120" width="160" height="26" as="alternateBounds" />
          </mxGeometry>
        </mxCell>
        <mxCell id="cKu4siLhyV3QIfPD6zT8-1" value="+ GetAllEntries(): List&lt;Entry&gt;" style="text;align=left;verticalAlign=top;spacingLeft=4;spacingRight=4;overflow=hidden;rotatable=0;points=[[0,0.5],[1,0.5]];portConstraint=eastwest;labelBackgroundColor=none;fontColor=#393C56;rounded=1;" parent="cKu4siLhyV3QIfPD6zT8-0" vertex="1">
          <mxGeometry y="40" width="260" height="26" as="geometry" />
        </mxCell>
        <mxCell id="cKu4siLhyV3QIfPD6zT8-2" value="+ GetRandomEntry(): Entry" style="text;align=left;verticalAlign=top;spacingLeft=4;spacingRight=4;overflow=hidden;rotatable=0;points=[[0,0.5],[1,0.5]];portConstraint=eastwest;labelBackgroundColor=none;fontColor=#393C56;rounded=1;" parent="cKu4siLhyV3QIfPD6zT8-0" vertex="1">
          <mxGeometry y="66" width="260" height="26" as="geometry" />
        </mxCell>
        <mxCell id="cKu4siLhyV3QIfPD6zT8-3" value="+ GetEntryById(id: int): Entry" style="text;align=left;verticalAlign=top;spacingLeft=4;spacingRight=4;overflow=hidden;rotatable=0;points=[[0,0.5],[1,0.5]];portConstraint=eastwest;labelBackgroundColor=none;fontColor=#393C56;rounded=1;" parent="cKu4siLhyV3QIfPD6zT8-0" vertex="1">
          <mxGeometry y="92" width="260" height="26" as="geometry" />
        </mxCell>
        <mxCell id="cKu4siLhyV3QIfPD6zT8-4" value="+ UploadText(string, string, string): void" style="text;align=left;verticalAlign=top;spacingLeft=4;spacingRight=4;overflow=hidden;rotatable=0;points=[[0,0.5],[1,0.5]];portConstraint=eastwest;labelBackgroundColor=none;fontColor=#393C56;rounded=1;" parent="cKu4siLhyV3QIfPD6zT8-0" vertex="1">
          <mxGeometry y="118" width="260" height="26" as="geometry" />
        </mxCell>
        <mxCell id="cKu4siLhyV3QIfPD6zT8-5" value="+ EditEntry(int, string, string, string): void" style="text;align=left;verticalAlign=top;spacingLeft=4;spacingRight=4;overflow=hidden;rotatable=0;points=[[0,0.5],[1,0.5]];portConstraint=eastwest;labelBackgroundColor=none;fontColor=#393C56;rounded=1;" parent="cKu4siLhyV3QIfPD6zT8-0" vertex="1">
          <mxGeometry y="144" width="260" height="26" as="geometry" />
        </mxCell>
        <mxCell id="cKu4siLhyV3QIfPD6zT8-6" value="+ DeleteEntry(id: int): void" style="text;align=left;verticalAlign=top;spacingLeft=4;spacingRight=4;overflow=hidden;rotatable=0;points=[[0,0.5],[1,0.5]];portConstraint=eastwest;labelBackgroundColor=none;fontColor=#393C56;rounded=1;" parent="cKu4siLhyV3QIfPD6zT8-0" vertex="1">
          <mxGeometry y="170" width="260" height="26" as="geometry" />
        </mxCell>
        <mxCell id="cKu4siLhyV3QIfPD6zT8-7" value="+ GetTopWords(): List&lt;string&gt;" style="text;align=left;verticalAlign=top;spacingLeft=4;spacingRight=4;overflow=hidden;rotatable=0;points=[[0,0.5],[1,0.5]];portConstraint=eastwest;labelBackgroundColor=none;fontColor=#393C56;rounded=1;" parent="cKu4siLhyV3QIfPD6zT8-0" vertex="1">
          <mxGeometry y="196" width="260" height="26" as="geometry" />
        </mxCell>
        <mxCell id="cKu4siLhyV3QIfPD6zT8-8" value="+ GetRandomWords(int): Entry" style="text;align=left;verticalAlign=top;spacingLeft=4;spacingRight=4;overflow=hidden;rotatable=0;points=[[0,0.5],[1,0.5]];portConstraint=eastwest;labelBackgroundColor=none;fontColor=#393C56;rounded=1;" parent="cKu4siLhyV3QIfPD6zT8-0" vertex="1">
          <mxGeometry y="222" width="260" height="26" as="geometry" />
        </mxCell>
        <mxCell id="cKu4siLhyV3QIfPD6zT8-9" value="+ SaveScore(Score): void" style="text;align=left;verticalAlign=top;spacingLeft=4;spacingRight=4;overflow=hidden;rotatable=0;points=[[0,0.5],[1,0.5]];portConstraint=eastwest;labelBackgroundColor=none;fontColor=#393C56;rounded=1;" parent="cKu4siLhyV3QIfPD6zT8-0" vertex="1">
          <mxGeometry y="248" width="260" height="26" as="geometry" />
        </mxCell>
        <mxCell id="cKu4siLhyV3QIfPD6zT8-10" value="+ GetAllScores(): List&lt;Score&gt;" style="text;align=left;verticalAlign=top;spacingLeft=4;spacingRight=4;overflow=hidden;rotatable=0;points=[[0,0.5],[1,0.5]];portConstraint=eastwest;labelBackgroundColor=none;fontColor=#393C56;rounded=1;" parent="cKu4siLhyV3QIfPD6zT8-0" vertex="1">
          <mxGeometry y="274" width="260" height="26" as="geometry" />
        </mxCell>
        <mxCell id="cKu4siLhyV3QIfPD6zT8-11" value="+ GetTopScores(int = 10): List&lt;Score&gt;" style="text;align=left;verticalAlign=top;spacingLeft=4;spacingRight=4;overflow=hidden;rotatable=0;points=[[0,0.5],[1,0.5]];portConstraint=eastwest;labelBackgroundColor=none;fontColor=#393C56;rounded=1;" parent="cKu4siLhyV3QIfPD6zT8-0" vertex="1">
          <mxGeometry y="300" width="260" height="26" as="geometry" />
        </mxCell>
        <mxCell id="cKu4siLhyV3QIfPD6zT8-12" style="edgeStyle=orthogonalEdgeStyle;rounded=1;orthogonalLoop=1;jettySize=auto;html=1;entryX=1;entryY=0.5;entryDx=0;entryDy=0;endArrow=block;endFill=1;dashed=1;labelBackgroundColor=none;strokeColor=#E07A5F;fontColor=default;exitX=0.25;exitY=0;exitDx=0;exitDy=0;" parent="WIyWlLk6GJQsqaUBKTNV-1" source="cKu4siLhyV3QIfPD6zT8-13" target="cKu4siLhyV3QIfPD6zT8-5" edge="1">
          <mxGeometry relative="1" as="geometry">
            <Array as="points" />
          </mxGeometry>
        </mxCell>
        <mxCell id="aBo44afxSkpnM7kBW6Xj-0" style="edgeStyle=orthogonalEdgeStyle;rounded=0;orthogonalLoop=1;jettySize=auto;html=1;strokeColor=#E07A5F;fontColor=#393C56;fillColor=#F2CC8F;" edge="1" parent="WIyWlLk6GJQsqaUBKTNV-1" source="cKu4siLhyV3QIfPD6zT8-13" target="cKu4siLhyV3QIfPD6zT8-18">
          <mxGeometry relative="1" as="geometry" />
        </mxCell>
        <mxCell id="cKu4siLhyV3QIfPD6zT8-13" value="Persistence::DataHandler" style="swimlane;fontStyle=2;align=center;verticalAlign=top;childLayout=stackLayout;horizontal=1;startSize=30;horizontalStack=0;resizeParent=1;resizeLast=0;collapsible=1;marginBottom=0;rounded=1;shadow=0;strokeWidth=1;labelBackgroundColor=none;fillColor=#F2CC8F;strokeColor=#E07A5F;fontColor=#393C56;" parent="WIyWlLk6GJQsqaUBKTNV-1" vertex="1">
          <mxGeometry x="1214" y="726" width="260" height="134" as="geometry">
            <mxRectangle x="220" y="120" width="160" height="26" as="alternateBounds" />
          </mxGeometry>
        </mxCell>
        <mxCell id="cKu4siLhyV3QIfPD6zT8-14" value="- TextsFilePath: string" style="text;align=left;verticalAlign=top;spacingLeft=4;spacingRight=4;overflow=hidden;rotatable=0;points=[[0,0.5],[1,0.5]];portConstraint=eastwest;labelBackgroundColor=none;fontColor=#393C56;rounded=1;" parent="cKu4siLhyV3QIfPD6zT8-13" vertex="1">
          <mxGeometry y="30" width="260" height="26" as="geometry" />
        </mxCell>
        <mxCell id="cKu4siLhyV3QIfPD6zT8-15" value="- WordsFilePath: string" style="text;align=left;verticalAlign=top;spacingLeft=4;spacingRight=4;overflow=hidden;rotatable=0;points=[[0,0.5],[1,0.5]];portConstraint=eastwest;labelBackgroundColor=none;fontColor=#393C56;rounded=1;" parent="cKu4siLhyV3QIfPD6zT8-13" vertex="1">
          <mxGeometry y="56" width="260" height="26" as="geometry" />
        </mxCell>
        <mxCell id="cKu4siLhyV3QIfPD6zT8-16" value="- ScoresFilePath: string" style="text;align=left;verticalAlign=top;spacingLeft=4;spacingRight=4;overflow=hidden;rotatable=0;points=[[0,0.5],[1,0.5]];portConstraint=eastwest;labelBackgroundColor=none;fontColor=#393C56;rounded=1;" parent="cKu4siLhyV3QIfPD6zT8-13" vertex="1">
          <mxGeometry y="82" width="260" height="26" as="geometry" />
        </mxCell>
        <mxCell id="cKu4siLhyV3QIfPD6zT8-17" value="- jsonSerializerOptions: JsonSerializerOptions" style="text;align=left;verticalAlign=top;spacingLeft=4;spacingRight=4;overflow=hidden;rotatable=0;points=[[0,0.5],[1,0.5]];portConstraint=eastwest;labelBackgroundColor=none;fontColor=#393C56;rounded=1;" parent="cKu4siLhyV3QIfPD6zT8-13" vertex="1">
          <mxGeometry y="108" width="260" height="26" as="geometry" />
        </mxCell>
        <mxCell id="cKu4siLhyV3QIfPD6zT8-18" value="Persistence::InvalidIdException: Exception" style="swimlane;fontStyle=2;align=center;verticalAlign=top;childLayout=stackLayout;horizontal=1;startSize=26;horizontalStack=0;resizeParent=1;resizeLast=0;collapsible=1;marginBottom=0;rounded=1;shadow=0;strokeWidth=1;labelBackgroundColor=none;fillColor=#F2CC8F;strokeColor=#E07A5F;fontColor=#393C56;" parent="WIyWlLk6GJQsqaUBKTNV-1" vertex="1">
          <mxGeometry x="1214" y="534" width="260" height="104" as="geometry">
            <mxRectangle x="220" y="120" width="160" height="26" as="alternateBounds" />
          </mxGeometry>
        </mxCell>
        <mxCell id="cKu4siLhyV3QIfPD6zT8-19" value="+ InvalidIdException()" style="text;align=left;verticalAlign=top;spacingLeft=4;spacingRight=4;overflow=hidden;rotatable=0;points=[[0,0.5],[1,0.5]];portConstraint=eastwest;labelBackgroundColor=none;fontColor=#393C56;rounded=1;" parent="cKu4siLhyV3QIfPD6zT8-18" vertex="1">
          <mxGeometry y="26" width="260" height="26" as="geometry" />
        </mxCell>
        <mxCell id="cKu4siLhyV3QIfPD6zT8-20" value="+ InvalidIdException(string)" style="text;align=left;verticalAlign=top;spacingLeft=4;spacingRight=4;overflow=hidden;rotatable=0;points=[[0,0.5],[1,0.5]];portConstraint=eastwest;labelBackgroundColor=none;fontColor=#393C56;rounded=1;" parent="cKu4siLhyV3QIfPD6zT8-18" vertex="1">
          <mxGeometry y="52" width="260" height="26" as="geometry" />
        </mxCell>
        <mxCell id="cKu4siLhyV3QIfPD6zT8-21" value="+ InvalidIdException(string, Exception)" style="text;align=left;verticalAlign=top;spacingLeft=4;spacingRight=4;overflow=hidden;rotatable=0;points=[[0,0.5],[1,0.5]];portConstraint=eastwest;labelBackgroundColor=none;fontColor=#393C56;rounded=1;" parent="cKu4siLhyV3QIfPD6zT8-18" vertex="1">
          <mxGeometry y="78" width="260" height="26" as="geometry" />
        </mxCell>
      </root>
    </mxGraphModel>
  </diagram>
</mxfile>
